<?xml version="1.0" standalone="no"?><!DOCTYPE svg PUBLIC "-//W3C//DTD SVG 1.1//EN" "http://www.w3.org/Graphics/SVG/1.1/DTD/svg11.dtd"><svg t="1551247293837" class="icon" style="" viewBox="0 0 2304 1024" version="1.1" xmlns="http://www.w3.org/2000/svg" p-id="3299" xmlns:xlink="http://www.w3.org/1999/xlink" width="80" height="40"><defs><style type="text/css"></style></defs><path d="M499.2 71.68c-25.6-25.6-56.32-51.2-87.04-71.68h-289.28c-69.12 0-122.88 56.32-122.88 122.88v578.56c0 69.12 56.32 122.88 122.88 122.88h166.4v-97.28c0-43.52 35.84-79.36 79.36-79.36h261.12c69.12-189.44 25.6-417.28-130.56-576z" fill="#034282" p-id="3300"></path><path d="M368.64 652.8h1771.52v-527.36c0-69.12-56.32-122.88-122.88-122.88h-1894.4c-69.12 0-122.88 56.32-122.88 122.88v578.56c0 69.12 56.32 122.88 122.88 122.88h166.4v-97.28c0-40.96 35.84-76.8 79.36-76.8z" fill="#034282" p-id="3301"></path><path d="M2165.76 652.8h-23.04v51.2c0 69.12-56.32 122.88-122.88 122.88h-1728v117.76c0 43.52 35.84 79.36 79.36 79.36h1797.12c43.52 0 79.36-35.84 79.36-79.36v-215.04c-2.56-40.96-38.4-76.8-81.92-76.8z" fill="#BCDCF1" p-id="3302"></path><path d="M2140.16 706.56v-51.2h-1771.52c-43.52 0-79.36 35.84-79.36 79.36v97.28h1728c69.12-2.56 122.88-58.88 122.88-125.44z" fill="#64B8E3" p-id="3303"></path><path d="M535.04 273.92c53.76 66.56 48.64 140.8-15.36 176.64-15.36 7.68-33.28 15.36-48.64 15.36-74.24 2.56-145.92 0-222.72 0v-353.28c79.36 0 158.72-2.56 235.52 0 53.76 2.56 84.48 66.56 66.56 122.88-5.12 15.36-10.24 28.16-15.36 38.4z m-220.16 135.68c58.88-5.12 112.64-5.12 166.4-12.8 10.24-2.56 28.16-28.16 25.6-40.96 0-12.8-20.48-35.84-30.72-38.4-53.76-5.12-104.96-2.56-161.28-2.56v94.72z m0-227.84c0 17.92-2.56 33.28 0 46.08 0 7.68 7.68 20.48 12.8 20.48 46.08 0 94.72 0 140.8-5.12 7.68 0 20.48-23.04 20.48-33.28s-17.92-25.6-28.16-25.6c-48.64-5.12-94.72-2.56-145.92-2.56zM1797.12 412.16h168.96v53.76c-66.56 0-130.56 2.56-197.12 0-40.96-2.56-64-30.72-64-74.24v-273.92h261.12v64h-166.4v76.8h168.96v56.32h-168.96c-2.56 30.72-2.56 58.88-2.56 97.28zM1041.92 409.6h171.52v53.76c-64 0-125.44 2.56-186.88 0-43.52-2.56-66.56-33.28-66.56-79.36v-268.8h258.56v64h-174.08v74.24h168.96v56.32c-40.96 0-84.48 2.56-125.44 0-35.84-2.56-51.2 10.24-46.08 46.08 2.56 17.92 0 33.28 0 53.76zM1297.92 115.2h74.24c0 66.56 2.56 130.56 0 194.56-7.68 97.28 48.64 102.4 120.32 94.72 43.52-5.12 58.88-28.16 58.88-74.24v-212.48h66.56c0 87.04 5.12 174.08-2.56 261.12-5.12 46.08-43.52 79.36-92.16 84.48-40.96 5.12-81.92 5.12-122.88 0-61.44-7.68-102.4-58.88-102.4-122.88v-225.28zM906.24 407.04v58.88c-66.56 0-135.68 2.56-202.24-2.56-28.16-2.56-53.76-20.48-53.76-53.76v-294.4h81.92c0 84.48 2.56 166.4 0 248.32 0 33.28 10.24 43.52 43.52 43.52 43.52-2.56 84.48 0 130.56 0z" fill="#FFFFFF" p-id="3304"></path><path d="M151.04 184.32l20.48 7.68c-2.56 12.8-7.68 20.48-15.36 25.6-7.68 5.12-17.92 7.68-28.16 7.68-12.8 0-25.6-5.12-35.84-15.36s-12.8-23.04-12.8-38.4c0-17.92 5.12-30.72 12.8-40.96s20.48-15.36 35.84-15.36c12.8 0 23.04 2.56 30.72 10.24 5.12 5.12 7.68 10.24 10.24 20.48l-20.48 5.12c0-5.12-5.12-10.24-7.68-12.8-5.12-2.56-7.68-5.12-15.36-5.12s-15.36 2.56-17.92 7.68c-5.12 5.12-7.68 15.36-7.68 28.16s2.56 23.04 7.68 28.16c5.12 5.12 10.24 7.68 17.92 7.68 5.12 0 10.24-2.56 15.36-5.12 5.12-2.56 7.68-7.68 10.24-15.36zM179.2 345.6h-23.04l-10.24-23.04h-43.52l-7.68 23.04h-23.04l40.96-104.96h23.04l43.52 104.96z m-40.96-40.96l-15.36-38.4-15.36 38.4h30.72zM84.48 471.04v-104.96h46.08c10.24 0 20.48 0 25.6 2.56s10.24 5.12 12.8 10.24 5.12 10.24 5.12 17.92c0 7.68-2.56 15.36-7.68 20.48-5.12 5.12-12.8 7.68-20.48 10.24 5.12 2.56 7.68 5.12 10.24 7.68 2.56 2.56 7.68 7.68 12.8 17.92l12.8 20.48h-25.6l-15.36-23.04c-5.12-7.68-10.24-12.8-10.24-15.36-2.56-2.56-5.12-2.56-7.68-5.12H107.52v43.52l-23.04-2.56z m20.48-61.44h15.36c10.24 0 17.92 0 20.48-2.56 2.56 0 5.12-2.56 5.12-5.12 2.56-2.56 2.56-5.12 2.56-7.68 0-2.56 0-7.68-2.56-7.68-2.56-2.56-5.12-2.56-7.68-5.12H104.96v28.16zM107.52 593.92v-87.04h-30.72v-17.92h84.48v17.92h-30.72v87.04h-23.04zM84.48 719.36v-104.96h79.36v17.92h-56.32v23.04h53.76v17.92h-53.76v28.16h58.88v17.92h-81.92z" fill="#FFFFFF" p-id="3305"></path></svg>